<svg width="291" height="291" viewBox="0 0 291 291" fill="none" xmlns="http://www.w3.org/2000/svg">
<path d="M2.78927 4.64879H8.36782V10.2273H2.78927V4.64879Z" fill="#372EB3"/>
<path d="M2.78927 4.64879H8.36782V10.2273H2.78927V4.64879Z" fill="#372EB3"/>
<path d="M2.78927 44.0951H8.36782V49.6736H2.78927V44.0951Z" fill="#372EB3"/>
<path d="M2.78927 83.5413H8.36782V89.1199H2.78927V83.5413Z" fill="#372EB3"/>
<path d="M2.78927 122.988H8.36782V128.566H2.78927V122.988Z" fill="#372EB3"/>
<path d="M2.78927 162.434H8.36782V168.012H2.78927V162.434Z" fill="#372EB3"/>
<path d="M2.78927 201.88H8.36782V207.459H2.78927V201.88Z" fill="#372EB3"/>
<path d="M2.78927 241.326H8.36782V246.905H2.78927V241.326Z" fill="#372EB3"/>
<path d="M2.78927 280.773H8.36782V286.351H2.78927V280.773Z" fill="#372EB3"/>
<path d="M2.78927 4.64879H8.36782V10.2273H2.78927V4.64879Z" fill="#372EB3"/>
<path d="M2.78927 4.64879H8.36782V10.2273H2.78927V4.64879Z" fill="#372EB3"/>
<path d="M2.78927 44.0951H8.36782V49.6736H2.78927V44.0951Z" fill="#372EB3"/>
<path d="M2.78927 83.5413H8.36782V89.1199H2.78927V83.5413Z" fill="#372EB3"/>
<path d="M2.78927 122.988H8.36782V128.566H2.78927V122.988Z" fill="#372EB3"/>
<path d="M2.78927 162.434H8.36782V168.012H2.78927V162.434Z" fill="#372EB3"/>
<path d="M2.78927 201.88H8.36782V207.459H2.78927V201.88Z" fill="#372EB3"/>
<path d="M2.78927 241.326H8.36782V246.905H2.78927V241.326Z" fill="#372EB3"/>
<path d="M2.78927 280.773H8.36782V286.351H2.78927V280.773Z" fill="#372EB3"/>
<path d="M42.2356 4.64879H47.8141V10.2273H42.2356V4.64879Z" fill="#372EB3"/>
<path d="M42.2356 4.64879H47.8141V10.2273H42.2356V4.64879Z" fill="#372EB3"/>
<path d="M42.2356 44.0951H47.8141V49.6736H42.2356V44.0951Z" fill="#372EB3"/>
<path d="M42.2356 83.5413H47.8141V89.1199H42.2356V83.5413Z" fill="#372EB3"/>
<path d="M42.2356 122.988H47.8141V128.566H42.2356V122.988Z" fill="#372EB3"/>
<path d="M42.2356 162.434H47.8141V168.012H42.2356V162.434Z" fill="#372EB3"/>
<path d="M42.2356 201.88H47.8141V207.459H42.2356V201.88Z" fill="#372EB3"/>
<path d="M42.2356 241.326H47.8141V246.905H42.2356V241.326Z" fill="#372EB3"/>
<path d="M42.2356 280.773H47.8141V286.351H42.2356V280.773Z" fill="#372EB3"/>
<path d="M81.6819 4.64879H87.2604V10.2273H81.6819V4.64879Z" fill="#372EB3"/>
<path d="M81.6819 4.64879H87.2604V10.2273H81.6819V4.64879Z" fill="#372EB3"/>
<path d="M81.6819 44.0951H87.2604V49.6736H81.6819V44.0951Z" fill="#372EB3"/>
<path d="M81.6819 83.5413H87.2604V89.1199H81.6819V83.5413Z" fill="#372EB3"/>
<path d="M81.6819 122.988H87.2604V128.566H81.6819V122.988Z" fill="#372EB3"/>
<path d="M81.6819 162.434H87.2604V168.012H81.6819V162.434Z" fill="#372EB3"/>
<path d="M81.6819 201.88H87.2604V207.459H81.6819V201.88Z" fill="#372EB3"/>
<path d="M81.6819 241.326H87.2604V246.905H81.6819V241.326Z" fill="#372EB3"/>
<path d="M81.6819 280.773H87.2604V286.351H81.6819V280.773Z" fill="#372EB3"/>
<path d="M121.128 4.64879H126.707V10.2273H121.128V4.64879Z" fill="#372EB3"/>
<path d="M121.128 4.64879H126.707V10.2273H121.128V4.64879Z" fill="#372EB3"/>
<path d="M121.128 44.0951H126.707V49.6736H121.128V44.0951Z" fill="#372EB3"/>
<path d="M121.128 83.5413H126.707V89.1199H121.128V83.5413Z" fill="#372EB3"/>
<path d="M121.128 122.988H126.707V128.566H121.128V122.988Z" fill="#372EB3"/>
<path d="M121.128 162.434H126.707V168.012H121.128V162.434Z" fill="#372EB3"/>
<path d="M121.128 201.88H126.707V207.459H121.128V201.88Z" fill="#372EB3"/>
<path d="M121.128 241.326H126.707V246.905H121.128V241.326Z" fill="#372EB3"/>
<path d="M121.128 280.773H126.707V286.351H121.128V280.773Z" fill="#372EB3"/>
<path d="M160.574 4.64879H166.153V10.2273H160.574V4.64879Z" fill="#372EB3"/>
<path d="M160.574 4.64879H166.153V10.2273H160.574V4.64879Z" fill="#372EB3"/>
<path d="M160.574 44.0951H166.153V49.6736H160.574V44.0951Z" fill="#372EB3"/>
<path d="M160.574 83.5413H166.153V89.1199H160.574V83.5413Z" fill="#372EB3"/>
<path d="M160.574 122.988H166.153V128.566H160.574V122.988Z" fill="#372EB3"/>
<path d="M160.574 162.434H166.153V168.012H160.574V162.434Z" fill="#372EB3"/>
<path d="M160.574 201.88H166.153V207.459H160.574V201.88Z" fill="#372EB3"/>
<path d="M160.574 241.326H166.153V246.905H160.574V241.326Z" fill="#372EB3"/>
<path d="M160.574 280.773H166.153V286.351H160.574V280.773Z" fill="#372EB3"/>
<path d="M200.021 4.64879H205.599V10.2273H200.021V4.64879Z" fill="#372EB3"/>
<path d="M200.021 4.64879H205.599V10.2273H200.021V4.64879Z" fill="#372EB3"/>
<path d="M200.021 44.0951H205.599V49.6736H200.021V44.0951Z" fill="#372EB3"/>
<path d="M200.021 83.5413H205.599V89.1199H200.021V83.5413Z" fill="#372EB3"/>
<path d="M200.021 122.988H205.599V128.566H200.021V122.988Z" fill="#372EB3"/>
<path d="M200.021 162.434H205.599V168.012H200.021V162.434Z" fill="#372EB3"/>
<path d="M200.021 201.88H205.599V207.459H200.021V201.88Z" fill="#372EB3"/>
<path d="M200.021 241.326H205.599V246.905H200.021V241.326Z" fill="#372EB3"/>
<path d="M200.021 280.773H205.599V286.351H200.021V280.773Z" fill="#372EB3"/>
<path d="M239.467 4.64879H245.046V10.2273H239.467V4.64879Z" fill="#372EB3"/>
<path d="M239.467 4.64879H245.046V10.2273H239.467V4.64879Z" fill="#372EB3"/>
<path d="M239.467 44.0951H245.046V49.6736H239.467V44.0951Z" fill="#372EB3"/>
<path d="M239.467 83.5413H245.046V89.1199H239.467V83.5413Z" fill="#372EB3"/>
<path d="M239.467 122.988H245.046V128.566H239.467V122.988Z" fill="#372EB3"/>
<path d="M239.467 162.434H245.046V168.012H239.467V162.434Z" fill="#372EB3"/>
<path d="M239.467 201.88H245.046V207.459H239.467V201.88Z" fill="#372EB3"/>
<path d="M239.467 241.326H245.046V246.905H239.467V241.326Z" fill="#372EB3"/>
<path d="M239.467 280.773H245.046V286.351H239.467V280.773Z" fill="#372EB3"/>
<path d="M278.913 4.64879H284.492V10.2273H278.913V4.64879Z" fill="#372EB3"/>
<path d="M278.913 4.64879H284.492V10.2273H278.913V4.64879Z" fill="#372EB3"/>
<path d="M278.913 44.0951H284.492V49.6736H278.913V44.0951Z" fill="#372EB3"/>
<path d="M278.913 83.5413H284.492V89.1199H278.913V83.5413Z" fill="#372EB3"/>
<path d="M278.913 122.988H284.492V128.566H278.913V122.988Z" fill="#372EB3"/>
<path d="M278.913 162.434H284.492V168.012H278.913V162.434Z" fill="#372EB3"/>
<path d="M278.913 201.88H284.492V207.459H278.913V201.88Z" fill="#372EB3"/>
<path d="M278.913 241.326H284.492V246.905H278.913V241.326Z" fill="#372EB3"/>
<path d="M278.913 280.773H284.492V286.351H278.913V280.773Z" fill="#372EB3"/>
</svg>
