<svg width="109" height="109" viewBox="0 0 109 109" fill="none" xmlns="http://www.w3.org/2000/svg">
<path d="M1.04478 1.74135H3.13434V3.83091H1.04478V1.74135Z" fill="#372EB3"/>
<path d="M1.04478 1.74135H3.13434V3.83091H1.04478V1.74135Z" fill="#372EB3"/>
<path d="M1.04478 16.5167H3.13434V18.6063H1.04478V16.5167Z" fill="#372EB3"/>
<path d="M1.04478 31.2921H3.13434V33.3817H1.04478V31.2921Z" fill="#372EB3"/>
<path d="M1.04478 46.0675H3.13434V48.1571H1.04478V46.0675Z" fill="#372EB3"/>
<path d="M1.04478 60.8429H3.13434V62.9325H1.04478V60.8429Z" fill="#372EB3"/>
<path d="M1.04478 75.6183H3.13434V77.7079H1.04478V75.6183Z" fill="#372EB3"/>
<path d="M1.04478 90.3937H3.13434V92.4833H1.04478V90.3937Z" fill="#372EB3"/>
<path d="M1.04478 105.169H3.13434V107.259H1.04478V105.169Z" fill="#372EB3"/>
<path d="M1.04478 1.74135H3.13434V3.83091H1.04478V1.74135Z" fill="#372EB3"/>
<path d="M1.04478 1.74135H3.13434V3.83091H1.04478V1.74135Z" fill="#372EB3"/>
<path d="M1.04478 16.5167H3.13434V18.6063H1.04478V16.5167Z" fill="#372EB3"/>
<path d="M1.04478 31.2921H3.13434V33.3817H1.04478V31.2921Z" fill="#372EB3"/>
<path d="M1.04478 46.0675H3.13434V48.1571H1.04478V46.0675Z" fill="#372EB3"/>
<path d="M1.04478 60.8429H3.13434V62.9325H1.04478V60.8429Z" fill="#372EB3"/>
<path d="M1.04478 75.6183H3.13434V77.7079H1.04478V75.6183Z" fill="#372EB3"/>
<path d="M1.04478 90.3937H3.13434V92.4833H1.04478V90.3937Z" fill="#372EB3"/>
<path d="M1.04478 105.169H3.13434V107.259H1.04478V105.169Z" fill="#372EB3"/>
<path d="M15.8202 1.74135H17.9097V3.83091H15.8202V1.74135Z" fill="#372EB3"/>
<path d="M15.8202 1.74135H17.9097V3.83091H15.8202V1.74135Z" fill="#372EB3"/>
<path d="M15.8202 16.5167H17.9097V18.6063H15.8202V16.5167Z" fill="#372EB3"/>
<path d="M15.8202 31.2921H17.9097V33.3817H15.8202V31.2921Z" fill="#372EB3"/>
<path d="M15.8202 46.0675H17.9097V48.1571H15.8202V46.0675Z" fill="#372EB3"/>
<path d="M15.8202 60.8429H17.9097V62.9325H15.8202V60.8429Z" fill="#372EB3"/>
<path d="M15.8202 75.6183H17.9097V77.7079H15.8202V75.6183Z" fill="#372EB3"/>
<path d="M15.8202 90.3937H17.9097V92.4833H15.8202V90.3937Z" fill="#372EB3"/>
<path d="M15.8202 105.169H17.9097V107.259H15.8202V105.169Z" fill="#372EB3"/>
<path d="M30.5956 1.74135H32.6851V3.83091H30.5956V1.74135Z" fill="#372EB3"/>
<path d="M30.5956 1.74135H32.6851V3.83091H30.5956V1.74135Z" fill="#372EB3"/>
<path d="M30.5956 16.5167H32.6851V18.6063H30.5956V16.5167Z" fill="#372EB3"/>
<path d="M30.5956 31.2921H32.6851V33.3817H30.5956V31.2921Z" fill="#372EB3"/>
<path d="M30.5956 46.0675H32.6851V48.1571H30.5956V46.0675Z" fill="#372EB3"/>
<path d="M30.5956 60.8429H32.6851V62.9325H30.5956V60.8429Z" fill="#372EB3"/>
<path d="M30.5956 75.6183H32.6851V77.7079H30.5956V75.6183Z" fill="#372EB3"/>
<path d="M30.5956 90.3937H32.6851V92.4833H30.5956V90.3937Z" fill="#372EB3"/>
<path d="M30.5956 105.169H32.6851V107.259H30.5956V105.169Z" fill="#372EB3"/>
<path d="M45.371 1.74135H47.4605V3.83091H45.371V1.74135Z" fill="#372EB3"/>
<path d="M45.371 1.74135H47.4605V3.83091H45.371V1.74135Z" fill="#372EB3"/>
<path d="M45.371 16.5167H47.4605V18.6063H45.371V16.5167Z" fill="#372EB3"/>
<path d="M45.371 31.2921H47.4605V33.3817H45.371V31.2921Z" fill="#372EB3"/>
<path d="M45.371 46.0675H47.4605V48.1571H45.371V46.0675Z" fill="#372EB3"/>
<path d="M45.371 60.8429H47.4605V62.9325H45.371V60.8429Z" fill="#372EB3"/>
<path d="M45.371 75.6183H47.4605V77.7079H45.371V75.6183Z" fill="#372EB3"/>
<path d="M45.371 90.3937H47.4605V92.4833H45.371V90.3937Z" fill="#372EB3"/>
<path d="M45.371 105.169H47.4605V107.259H45.371V105.169Z" fill="#372EB3"/>
<path d="M60.1463 1.74135H62.2359V3.83091H60.1463V1.74135Z" fill="#372EB3"/>
<path d="M60.1463 1.74135H62.2359V3.83091H60.1463V1.74135Z" fill="#372EB3"/>
<path d="M60.1463 16.5167H62.2359V18.6063H60.1463V16.5167Z" fill="#372EB3"/>
<path d="M60.1463 31.2921H62.2359V33.3817H60.1463V31.2921Z" fill="#372EB3"/>
<path d="M60.1463 46.0675H62.2359V48.1571H60.1463V46.0675Z" fill="#372EB3"/>
<path d="M60.1463 60.8429H62.2359V62.9325H60.1463V60.8429Z" fill="#372EB3"/>
<path d="M60.1463 75.6183H62.2359V77.7079H60.1463V75.6183Z" fill="#372EB3"/>
<path d="M60.1463 90.3937H62.2359V92.4833H60.1463V90.3937Z" fill="#372EB3"/>
<path d="M60.1463 105.169H62.2359V107.259H60.1463V105.169Z" fill="#372EB3"/>
<path d="M74.9217 1.74135H77.0113V3.83091H74.9217V1.74135Z" fill="#372EB3"/>
<path d="M74.9217 1.74135H77.0113V3.83091H74.9217V1.74135Z" fill="#372EB3"/>
<path d="M74.9217 16.5167H77.0113V18.6063H74.9217V16.5167Z" fill="#372EB3"/>
<path d="M74.9217 31.2921H77.0113V33.3817H74.9217V31.2921Z" fill="#372EB3"/>
<path d="M74.9217 46.0675H77.0113V48.1571H74.9217V46.0675Z" fill="#372EB3"/>
<path d="M74.9217 60.8429H77.0113V62.9325H74.9217V60.8429Z" fill="#372EB3"/>
<path d="M74.9217 75.6183H77.0113V77.7079H74.9217V75.6183Z" fill="#372EB3"/>
<path d="M74.9217 90.3937H77.0113V92.4833H74.9217V90.3937Z" fill="#372EB3"/>
<path d="M74.9217 105.169H77.0113V107.259H74.9217V105.169Z" fill="#372EB3"/>
<path d="M89.6971 1.74135H91.7867V3.83091H89.6971V1.74135Z" fill="#372EB3"/>
<path d="M89.6971 1.74135H91.7867V3.83091H89.6971V1.74135Z" fill="#372EB3"/>
<path d="M89.6971 16.5167H91.7867V18.6063H89.6971V16.5167Z" fill="#372EB3"/>
<path d="M89.6971 31.2921H91.7867V33.3817H89.6971V31.2921Z" fill="#372EB3"/>
<path d="M89.6971 46.0675H91.7867V48.1571H89.6971V46.0675Z" fill="#372EB3"/>
<path d="M89.6971 60.8429H91.7867V62.9325H89.6971V60.8429Z" fill="#372EB3"/>
<path d="M89.6971 75.6183H91.7867V77.7079H89.6971V75.6183Z" fill="#372EB3"/>
<path d="M89.6971 90.3937H91.7867V92.4833H89.6971V90.3937Z" fill="#372EB3"/>
<path d="M89.6971 105.169H91.7867V107.259H89.6971V105.169Z" fill="#372EB3"/>
<path d="M104.473 1.74135H106.562V3.83091H104.473V1.74135Z" fill="#372EB3"/>
<path d="M104.473 1.74135H106.562V3.83091H104.473V1.74135Z" fill="#372EB3"/>
<path d="M104.473 16.5167H106.562V18.6063H104.473V16.5167Z" fill="#372EB3"/>
<path d="M104.473 31.2921H106.562V33.3817H104.473V31.2921Z" fill="#372EB3"/>
<path d="M104.473 46.0675H106.562V48.1571H104.473V46.0675Z" fill="#372EB3"/>
<path d="M104.473 60.8429H106.562V62.9325H104.473V60.8429Z" fill="#372EB3"/>
<path d="M104.473 75.6183H106.562V77.7079H104.473V75.6183Z" fill="#372EB3"/>
<path d="M104.473 90.3937H106.562V92.4833H104.473V90.3937Z" fill="#372EB3"/>
<path d="M104.473 105.169H106.562V107.259H104.473V105.169Z" fill="#372EB3"/>
</svg>
