<svg width="1268" height="188" viewBox="0 0 1268 188" fill="none" xmlns="http://www.w3.org/2000/svg">
<rect x="1162" y="6.10352e-05" width="7.00001" height="1162" transform="rotate(90 1162 6.10352e-05)" fill="#2A21A3"/>
<rect x="1162" y="15.0001" width="7.00001" height="1162" transform="rotate(90 1162 15.0001)" fill="#2A21A3"/>
<rect x="1162" y="30.0001" width="7.00001" height="1162" transform="rotate(90 1162 30.0001)" fill="#2A21A3"/>
<rect x="1162" y="45.0001" width="7.00001" height="1162" transform="rotate(90 1162 45.0001)" fill="#2A21A3"/>
<rect x="1162" y="60.0001" width="7.00001" height="1162" transform="rotate(90 1162 60.0001)" fill="#2A21A3"/>
<rect x="1162" y="75.0001" width="7.00001" height="1162" transform="rotate(90 1162 75.0001)" fill="#2A21A3"/>
<rect x="1162" y="90.0001" width="7.00001" height="1162" transform="rotate(90 1162 90.0001)" fill="#2A21A3"/>
<rect x="1162" y="105" width="7.00001" height="1162" transform="rotate(90 1162 105)" fill="#2A21A3"/>
<rect x="1162" y="120" width="7.00001" height="1162" transform="rotate(90 1162 120)" fill="#2A21A3"/>
<rect x="1162" y="135" width="7.00001" height="1162" transform="rotate(90 1162 135)" fill="#2A21A3"/>
<rect x="1162" y="150" width="7.00001" height="1162" transform="rotate(90 1162 150)" fill="#2A21A3"/>
<rect x="1162" y="165" width="7.00001" height="1162" transform="rotate(90 1162 165)" fill="#2A21A3"/>
<path d="M1242.66 156.43C1219.95 190.716 1164.66 194.073 1119.17 163.926C1073.68 133.78 1055.23 81.536 1077.96 47.2505" fill="#27F2D4"/>
<path d="M1139.28 132.801C1185.27 163.287 1232.73 172.643 1245.28 153.699C1257.83 134.755 1230.72 94.6849 1184.72 64.1992C1138.73 33.7136 1091.27 24.3571 1078.72 43.3009C1066.17 62.2447 1093.28 102.315 1139.28 132.801Z" fill="url(#paint0_linear_1_7425)"/>
<defs>
<linearGradient id="paint0_linear_1_7425" x1="1184.72" y1="64.1992" x2="1139.26" y2="132.789" gradientUnits="userSpaceOnUse">
<stop stop-color="#00E6CD"/>
<stop offset="0.619792" stop-color="#D9FFFB"/>
</linearGradient>
</defs>
</svg>
