<svg width="189" height="98" viewBox="0 0 189 98" fill="none" xmlns="http://www.w3.org/2000/svg">
<path d="M160.411 9.96411C172.8 17.9987 174.013 37.5582 163.12 53.6511C152.226 69.7441 133.348 76.2719 120.958 68.2325" fill="#E94472"/>
<path d="M151.872 46.5386C162.889 30.2675 166.27 13.4782 159.424 9.03861C152.579 4.59902 138.099 14.1903 127.083 30.4614C116.067 46.7325 112.686 63.5218 119.531 67.9614C126.377 72.401 140.856 62.8097 151.872 46.5386Z" fill="url(#paint0_linear_61_380)"/>
<g filter="url(#filter0_d_61_380)">
<path d="M54.4275 38.7682C54.4275 40.7446 54.0594 42.3877 53.3231 43.6975C52.5868 45.0074 51.5482 45.9917 50.2074 46.6505C48.8743 47.3015 47.3048 47.627 45.499 47.627H40V30.6302H45.8826C47.7117 30.6302 49.2618 30.9441 50.5329 31.5719C51.804 32.1997 52.7689 33.1181 53.4277 34.3272C54.0943 35.5362 54.4275 37.0166 54.4275 38.7682ZM49.661 38.931C49.661 37.9002 49.5215 37.0476 49.2425 36.3733C48.9712 35.6913 48.5604 35.1836 48.0101 34.8503C47.4599 34.5093 46.7662 34.3388 45.9291 34.3388H44.5922V43.8603H45.6152C47.0103 43.8603 48.0334 43.4573 48.6844 42.6512C49.3355 41.8374 49.661 40.5973 49.661 38.931Z" fill="#725BFF"/>
<path d="M66.7229 47.627L65.8859 44.4416H60.3637L59.5033 47.627H54.4578L60.0033 30.5604H66.13L71.7453 47.627H66.7229ZM64.9326 40.6748L64.2001 37.8846C64.1226 37.5824 64.0103 37.1522 63.863 36.5942C63.7157 36.0284 63.5685 35.4471 63.4212 34.8503C63.2817 34.2458 63.1732 33.7498 63.0957 33.3622C63.0259 33.7498 62.9252 34.2303 62.7934 34.8038C62.6694 35.3696 62.5377 35.9315 62.3982 36.4896C62.2664 37.0476 62.1501 37.5126 62.0494 37.8846L61.317 40.6748H64.9326Z" fill="#725BFF"/>
<path d="M88.3073 39.1054C88.3073 40.4152 88.1484 41.6088 87.8306 42.6861C87.5206 43.7557 87.0323 44.678 86.3658 45.453C85.6992 46.2281 84.8428 46.8248 83.7965 47.2434C82.7502 47.6542 81.4985 47.8595 80.0414 47.8595C78.6153 47.8595 77.3791 47.6542 76.3328 47.2434C75.2942 46.8248 74.4378 46.2319 73.7635 45.4646C73.0892 44.6896 72.5893 43.7634 72.2638 42.6861C71.9382 41.6088 71.7755 40.4074 71.7755 39.0821C71.7755 37.315 72.0661 35.7804 72.6474 34.4783C73.2365 33.1685 74.1433 32.157 75.3678 31.444C76.5924 30.7232 78.158 30.3628 80.0646 30.3628C82.0023 30.3628 83.5756 30.7232 84.7847 31.444C86.0015 32.1648 86.8928 33.1801 87.4586 34.4899C88.0244 35.7998 88.3073 37.3382 88.3073 39.1054ZM76.6118 39.1054C76.6118 40.1284 76.7281 41.0081 76.9606 41.7444C77.1931 42.4807 77.5612 43.0465 78.065 43.4418C78.5688 43.837 79.2276 44.0347 80.0414 44.0347C80.8862 44.0347 81.5566 43.837 82.0526 43.4418C82.5564 43.0465 82.9168 42.4807 83.1338 41.7444C83.3586 41.0081 83.471 40.1284 83.471 39.1054C83.471 37.5708 83.2152 36.3578 82.7037 35.4665C82.1922 34.5752 81.3125 34.1295 80.0646 34.1295C79.2353 34.1295 78.5649 34.331 78.0534 34.7341C77.5496 35.1371 77.1815 35.7106 76.9489 36.4547C76.7242 37.1987 76.6118 38.0823 76.6118 39.1054Z" fill="#725BFF"/>
<path d="M89.349 45.6971C89.349 44.8756 89.5892 44.2982 90.0698 43.9649C90.558 43.6316 91.1432 43.465 91.8252 43.465C92.4685 43.465 93.0266 43.6316 93.4994 43.9649C93.9721 44.2982 94.2085 44.8756 94.2085 45.6971C94.2085 46.4799 93.9721 47.0457 93.4994 47.3945C93.0266 47.7433 92.4685 47.9177 91.8252 47.9177C91.1432 47.9177 90.558 47.7433 90.0698 47.3945C89.5892 47.0457 89.349 46.4799 89.349 45.6971Z" fill="#725BFF"/>
<path d="M112.061 47.627H106.039L99.8307 35.6525H99.7261C99.7649 36.0168 99.7997 36.4547 99.8307 36.9662C99.8617 37.4777 99.8889 38.0009 99.9121 38.5357C99.9354 39.0627 99.947 39.5394 99.947 39.9657V47.627H95.878V30.6302H101.877L108.062 42.4419H108.132C108.108 42.0699 108.085 41.6398 108.062 41.1515C108.039 40.6555 108.015 40.1555 107.992 39.6518C107.977 39.148 107.969 38.7023 107.969 38.3148V30.6302H112.061V47.627Z" fill="#725BFF"/>
<path d="M124.635 47.627H114.544V30.6302H124.635V34.3155H119.136V36.9895H124.229V40.6748H119.136V43.8835H124.635V47.627Z" fill="#725BFF"/>
<path d="M148.963 30.6302L144.778 47.627H139.349L137.721 40.2214C137.69 40.0819 137.64 39.8455 137.57 39.5123C137.508 39.179 137.435 38.7992 137.349 38.3729C137.272 37.9467 137.198 37.5281 137.128 37.1174C137.066 36.6988 137.02 36.3462 136.989 36.0594C136.958 36.3462 136.908 36.6988 136.838 37.1174C136.768 37.5281 136.691 37.9467 136.605 38.3729C136.528 38.7992 136.45 39.179 136.373 39.5123C136.303 39.8455 136.253 40.0819 136.222 40.2214L134.582 47.627H129.153L124.945 30.6302H129.374L131.223 39.1519C131.269 39.3611 131.331 39.6595 131.409 40.047C131.494 40.4268 131.579 40.8453 131.664 41.3026C131.757 41.7521 131.843 42.1862 131.92 42.6047C131.998 43.0232 132.052 43.372 132.083 43.651C132.145 43.1705 132.226 42.6241 132.327 42.0118C132.436 41.3995 132.552 40.7795 132.676 40.1517C132.808 39.5161 132.932 38.9271 133.048 38.3846C133.164 37.842 133.265 37.4002 133.35 37.0592L134.85 30.6302H139.105L140.558 37.0592C140.636 37.3925 140.732 37.8343 140.849 38.3846C140.973 38.9271 141.097 39.5161 141.221 40.1517C141.352 40.7872 141.473 41.415 141.581 42.035C141.69 42.6473 141.771 43.186 141.825 43.651C141.872 43.2635 141.949 42.7752 142.058 42.1862C142.166 41.5894 142.275 41.012 142.383 40.4539C142.5 39.8882 142.589 39.4619 142.651 39.1751L144.534 30.6302H148.963Z" fill="#725BFF"/>
</g>
<defs>
<filter id="filter0_d_61_380" x="0" y="0.362793" width="188.964" height="97.5549" filterUnits="userSpaceOnUse" color-interpolation-filters="sRGB">
<feFlood flood-opacity="0" result="BackgroundImageFix"/>
<feColorMatrix in="SourceAlpha" type="matrix" values="0 0 0 0 0 0 0 0 0 0 0 0 0 0 0 0 0 0 127 0" result="hardAlpha"/>
<feOffset dy="10"/>
<feGaussianBlur stdDeviation="20"/>
<feComposite in2="hardAlpha" operator="out"/>
<feColorMatrix type="matrix" values="0 0 0 0 0 0 0 0 0 0 0 0 0 0 0 0 0 0 0.05 0"/>
<feBlend mode="normal" in2="BackgroundImageFix" result="effect1_dropShadow_61_380"/>
<feBlend mode="normal" in="SourceGraphic" in2="effect1_dropShadow_61_380" result="shape"/>
</filter>
<linearGradient id="paint0_linear_61_380" x1="115.871" y1="38.3121" x2="162.702" y2="38.3117" gradientUnits="userSpaceOnUse">
<stop stop-color="#EA677C"/>
<stop offset="0.51" stop-color="#EC8289"/>
<stop offset="1" stop-color="#F3B4A3"/>
</linearGradient>
</defs>
</svg>
