<?xml version="1.0" encoding="UTF-8"?>
<svg width="131px" height="65px" viewBox="0 0 131 65" version="1.1" xmlns="http://www.w3.org/2000/svg" xmlns:xlink="http://www.w3.org/1999/xlink">
    <title>dao.new_logo1</title>
    <defs>
        <linearGradient x1="20.2882875%" y1="49.6924212%" x2="79.2300658%" y2="49.6917664%" id="linearGradient-1">
            <stop stop-color="#EA677C" offset="0%"></stop>
            <stop stop-color="#EC8289" offset="51%"></stop>
            <stop stop-color="#F3B4A3" offset="100%"></stop>
        </linearGradient>
    </defs>
    <g id="Page-1" stroke="none" stroke-width="1" fill="none" fill-rule="evenodd">
        <g id="dao.new_logo1" transform="translate(0.000000, 0.953957)" fill-rule="nonzero">
            <g id="Group" transform="translate(75.990714, 0.000000)">
                <path d="M44.4202855,2.0101529 C56.8092855,10.0447429 58.0222855,29.6042429 47.1292855,45.6971429 C36.2352855,61.7901429 17.3572855,68.3179429 4.96728554,60.2785429" id="Path" fill="#E94472"></path>
                <path d="M35.8812855,38.5846429 C46.8982855,22.3135429 50.2792855,5.5242429 43.4332855,1.0846529 C36.5882855,-3.3549371 22.1082855,6.2363429 11.0922855,22.5074429 C0.076285543,38.7785429 -3.30471446,55.5678429 3.54028554,60.0074429 C10.3862855,64.4470429 24.8652855,54.8557429 35.8812855,38.5846429 Z" id="Path" fill="url(#linearGradient-1)"></path>
            </g>
            <g id="Group" transform="translate(0.000000, 22.408843)" fill="#725BFF">
                <path d="M14.4275,8.4054 C14.4275,10.3818 14.0594,12.0249 13.3231,13.3347 C12.5868,14.6446 11.5482,15.6289 10.2074,16.2877 C8.8743,16.9387 7.3048,17.2642 5.499,17.2642 L0,17.2642 L0,0.2674 L5.8826,0.2674 C7.7117,0.2674 9.2618,0.5813 10.5329,1.2091 C11.804,1.8369 12.7689,2.7553 13.4277,3.9644 C14.0943,5.1734 14.4275,6.6538 14.4275,8.4054 Z M9.661,8.5682 C9.661,7.5374 9.5215,6.6848 9.2425,6.0105 C8.9712,5.3285 8.5604,4.8208 8.0101,4.4875 C7.4599,4.1465 6.7662,3.976 5.9291,3.976 L4.5922,3.976 L4.5922,13.4975 L5.6152,13.4975 C7.0103,13.4975 8.0334,13.0945 8.6844,12.2884 C9.3355,11.4746 9.661,10.2345 9.661,8.5682 Z" id="Shape"></path>
                <path d="M26.7229,17.2642 L25.8859,14.0788 L20.3637,14.0788 L19.5033,17.2642 L14.4578,17.2642 L20.0033,0.1976 L26.13,0.1976 L31.7453,17.2642 L26.7229,17.2642 Z M24.9326,10.312 L24.2001,7.5218 C24.1226,7.2196 24.0103,6.7894 23.863,6.2314 C23.7157,5.6656 23.5685,5.0843 23.4212,4.4875 C23.2817,3.883 23.1732,3.387 23.0957,2.9994 C23.0259,3.387 22.9252,3.8675 22.7934,4.441 C22.6694,5.0068 22.5377,5.5687 22.3982,6.1268 C22.2664,6.6848 22.1501,7.1498 22.0494,7.5218 L21.317,10.312 L24.9326,10.312 Z" id="Shape"></path>
                <path d="M48.3073,8.7426 C48.3073,10.0524 48.1484,11.246 47.8306,12.3233 C47.5206,13.3929 47.0323,14.3152 46.3658,15.0902 C45.6993,15.8653 44.8428,16.462 43.7965,16.8806 C42.7502,17.2913 41.4985,17.4967 40.0414,17.4967 C38.6153,17.4967 37.3791,17.2913 36.3328,16.8806 C35.2942,16.462 34.4378,15.8691 33.7635,15.1018 C33.0892,14.3268 32.5893,13.4006 32.2638,12.3233 C31.9382,11.246 31.7755,10.0446 31.7755,8.7193 C31.7755,6.9522 32.0661,5.4176 32.6474,4.1155 C33.2365,2.8057 34.1433,1.7942 35.3678,1.0812 C36.5924,0.3604 38.158,0 40.0646,0 C42.0023,0 43.5756,0.3604 44.7847,1.0812 C46.0015,1.802 46.8928,2.8173 47.4586,4.1271 C48.0244,5.437 48.3073,6.9754 48.3073,8.7426 Z M36.6118,8.7426 C36.6118,9.7656 36.7281,10.6453 36.9606,11.3816 C37.1931,12.1179 37.5612,12.6837 38.065,13.079 C38.5688,13.4742 39.2276,13.6719 40.0414,13.6719 C40.8862,13.6719 41.5566,13.4742 42.0526,13.079 C42.5564,12.6837 42.9168,12.1179 43.1338,11.3816 C43.3586,10.6453 43.471,9.7656 43.471,8.7426 C43.471,7.208 43.2152,5.995 42.7037,5.1037 C42.1922,4.2124 41.3125,3.7667 40.0646,3.7667 C39.2353,3.7667 38.5649,3.9682 38.0534,4.3713 C37.5496,4.7743 37.1815,5.3478 36.9489,6.0919 C36.7242,6.8359 36.6118,7.7195 36.6118,8.7426 Z" id="Shape"></path>
                <path d="M49.349,15.3343 C49.349,14.5128 49.5892,13.9354 50.0698,13.6021 C50.558,13.2688 51.1432,13.1022 51.8252,13.1022 C52.4685,13.1022 53.0266,13.2688 53.4993,13.6021 C53.9721,13.9354 54.2085,14.5128 54.2085,15.3343 C54.2085,16.1171 53.9721,16.6829 53.4993,17.0317 C53.0266,17.3805 52.4685,17.5549 51.8252,17.5549 C51.1432,17.5549 50.558,17.3805 50.0698,17.0317 C49.5892,16.6829 49.349,16.1171 49.349,15.3343 Z" id="Path"></path>
                <path d="M72.061,17.2642 L66.039,17.2642 L59.8307,5.2897 L59.7261,5.2897 C59.7649,5.654 59.7997,6.0919 59.8307,6.6034 C59.8617,7.1149 59.8889,7.6381 59.9121,8.1729 C59.9354,8.6999 59.947,9.1766 59.947,9.6029 L59.947,17.2642 L55.878,17.2642 L55.878,0.2674 L61.877,0.2674 L68.062,12.0791 L68.132,12.0791 C68.108,11.7071 68.085,11.277 68.062,10.7887 C68.039,10.2927 68.015,9.7927 67.992,9.289 C67.977,8.7852 67.969,8.3395 67.969,7.952 L67.969,0.2674 L72.061,0.2674 L72.061,17.2642 Z" id="Path"></path>
                <polygon id="Path" points="84.635 17.2642 74.544 17.2642 74.544 0.2674 84.635 0.2674 84.635 3.9527 79.136 3.9527 79.136 6.6267 84.229 6.6267 84.229 10.312 79.136 10.312 79.136 13.5207 84.635 13.5207"></polygon>
                <path d="M108.963,0.2674 L104.778,17.2642 L99.349,17.2642 L97.721,9.8586 C97.69,9.7191 97.64,9.4827 97.57,9.1495 C97.508,8.8162 97.435,8.4364 97.349,8.0101 C97.272,7.5839 97.198,7.1653 97.128,6.7546 C97.066,6.336 97.02,5.9834 96.989,5.6966 C96.958,5.9834 96.908,6.336 96.838,6.7546 C96.768,7.1653 96.691,7.5839 96.605,8.0101 C96.528,8.4364 96.45,8.8162 96.373,9.1495 C96.303,9.4827 96.253,9.7191 96.222,9.8586 L94.582,17.2642 L89.153,17.2642 L84.945,0.2674 L89.374,0.2674 L91.223,8.7891 C91.269,8.9983 91.331,9.2967 91.409,9.6842 C91.494,10.064 91.579,10.4825 91.664,10.9398 C91.757,11.3893 91.843,11.8234 91.92,12.2419 C91.998,12.6604 92.052,13.0092 92.083,13.2882 C92.145,12.8077 92.226,12.2613 92.327,11.649 C92.436,11.0367 92.552,10.4167 92.676,9.7889 C92.808,9.1533 92.932,8.5643 93.048,8.0218 C93.164,7.4792 93.265,7.0374 93.35,6.6964 L94.85,0.2674 L99.105,0.2674 L100.558,6.6964 C100.636,7.0297 100.732,7.4715 100.849,8.0218 C100.973,8.5643 101.097,9.1533 101.221,9.7889 C101.352,10.4244 101.473,11.0522 101.581,11.6722 C101.69,12.2845 101.771,12.8232 101.825,13.2882 C101.872,12.9007 101.949,12.4124 102.058,11.8234 C102.166,11.2266 102.275,10.6492 102.383,10.0911 C102.5,9.5254 102.589,9.0991 102.651,8.8123 L104.534,0.2674 L108.963,0.2674 Z" id="Path"></path>
            </g>
        </g>
    </g>
</svg>