<svg width="100" height="37" viewBox="0 0 100 37" fill="none" xmlns="http://www.w3.org/2000/svg">
<path d="M39.5073 12.2277H33.1982V8.24805H50.3643V12.2277H44.0233V30.6649H39.5073V12.2277Z" fill="#2A21A3"/>
<path d="M65.4391 15.2645V30.6787H61.4272V28.8141H61.3491C60.2272 30.2334 58.6591 30.9431 56.6449 30.9431C55.6114 30.9513 54.5866 30.7573 53.6306 30.3726C52.7285 30.0106 51.9144 29.4666 51.2412 28.7758C50.5484 28.0532 50.0153 27.1981 49.6755 26.2642C48.9181 24.1724 48.9181 21.8891 49.6755 19.7973C50.0163 18.8584 50.5422 17.9943 51.2234 17.2543C51.8973 16.5414 52.7147 15.9731 53.624 15.5851C54.5332 15.1971 55.5147 14.998 56.5064 15.0001C57.3842 14.9708 58.2574 15.1361 59.0609 15.4837C59.8644 15.8312 60.5774 16.3521 61.1467 17.0074H61.2106V15.268L65.4391 15.2645ZM60.2485 26.0694C60.635 25.6626 60.9353 25.1847 61.1321 24.6634C61.329 24.1422 61.4184 23.5878 61.3953 23.0325C61.4342 21.9022 61.0317 20.7999 60.2698 19.9503C59.9184 19.5525 59.4815 19.2357 58.9905 19.0228C58.4994 18.8099 57.9663 18.7061 57.4295 18.7189C56.8897 18.7059 56.3531 18.8048 55.855 19.0093C55.357 19.2137 54.9087 19.519 54.5395 19.9051C54.1462 20.3268 53.8419 20.8205 53.6439 21.3578C53.4458 21.8951 53.3581 22.4654 53.3856 23.036C53.3369 24.1535 53.74 25.2448 54.5075 26.0729C54.8829 26.4444 55.3297 26.7393 55.8221 26.9405C56.3145 27.1418 56.8427 27.2454 57.3762 27.2454C57.9098 27.2454 58.438 27.1418 58.9304 26.9405C59.4228 26.7393 59.8696 26.4444 60.2449 26.0729L60.2485 26.0694Z" fill="#2A21A3"/>
<path d="M69.1245 7.43396H73.3424V30.6787H69.1245V7.43396Z" fill="#2A21A3"/>
<path d="M77.3401 7.43396H81.5544V30.6787H77.3401V7.43396Z" fill="#2A21A3"/>
<path d="M99.7606 15.2645L91.3001 36.923H86.9686L89.7699 29.7255L83.4893 15.2645H87.8953L91.751 24.8066H91.7971L95.4008 15.2645H99.7606Z" fill="#2A21A3"/>
<path d="M24.9983 10.711V18.392L18.9342 14.962V30.7901L12.1246 26.9357V11.111L6.06055 7.681V0L24.9983 10.711Z" fill="#2A21A3"/>
<path d="M21.9661 12.4573V20.1383L15.9057 16.7083V32.5364L9.09248 28.682V12.8574L3.03198 9.42734V1.74634L21.9661 12.4573Z" fill="#725BFF"/>
<path d="M18.9342 14.2036V21.8846L12.8737 18.4546V34.2828L6.06405 30.4284V14.6037L0 11.1737V3.49268L18.9342 14.2036Z" fill="#00E6CD"/>
</svg>
