<svg width="20" height="20" viewBox="0 0 20 20" fill="none" xmlns="http://www.w3.org/2000/svg">
<g clip-path="url(#clip0_20_457)">
<path d="M11.6016 10.0312C11.6016 9.40625 11.1328 8.89844 10.5859 8.89844C10 8.89844 9.53125 9.40625 9.53125 10.0312C9.53125 10.6172 10 11.125 10.5859 11.125C11.1328 11.125 11.6016 10.6172 11.6016 10.0312ZM6.91406 8.89844C6.36719 8.89844 5.89844 9.40625 5.89844 10.0312C5.89844 10.6172 6.36719 11.125 6.91406 11.125C7.5 11.125 7.92969 10.6172 7.92969 10.0312C7.96875 9.40625 7.5 8.89844 6.91406 8.89844ZM17.5 2.57031C17.5 1.4375 16.5625 0.5 15.4297 0.5H2.03125C0.898438 0.5 0 1.4375 0 2.57031V16.0859C0 17.2578 0.898438 18.1562 2.03125 18.1562H13.3594L12.8516 16.3203C15.7812 19.0156 14.9609 18.3125 17.5 20.5V2.57031ZM14.6484 12.0625C14.6484 12.0625 13.7891 13.5078 11.5625 13.5859C11.5625 13.5859 11.2109 13.1562 10.8984 12.7656C12.2266 12.4141 12.7344 11.5938 12.7344 11.5938C12.3047 11.8672 11.9141 12.0234 11.5625 12.1797C9.41406 13.0781 7.03125 12.7656 5.3125 11.8281C5.3125 11.7891 5.07812 11.6719 4.92188 11.5547C4.92188 11.5547 5.39062 12.375 6.67969 12.7656C6.36719 13.1172 6.01562 13.5859 6.01562 13.5859C3.78906 13.5078 2.96875 12.0625 2.96875 12.0625C2.96875 8.82031 4.375 6.24219 4.375 6.24219C5.82031 5.14844 7.1875 5.1875 7.1875 5.1875L7.30469 5.30469C5.50781 5.8125 4.6875 6.59375 4.6875 6.59375C4.6875 6.59375 4.88281 6.47656 5.27344 6.32031C7.57812 5.30469 10.3516 5.30469 12.7344 6.59375C12.7344 6.59375 11.9531 5.85156 10.2344 5.34375L10.3906 5.1875C10.3906 5.1875 11.7578 5.14844 13.2031 6.24219C13.2031 6.24219 14.6484 8.82031 14.6484 12.0625Z" fill="#2D3748"/>
</g>
<defs>
<clipPath id="clip0_20_457">
<rect width="20" height="20" fill="white"/>
</clipPath>
</defs>
</svg>
