<svg width="20" height="20" viewBox="0 0 20 20" fill="none" xmlns="http://www.w3.org/2000/svg">
<g clip-path="url(#clip0_20_462)">
<path d="M17.9297 6.4375C18.7109 5.85156 19.4141 5.14844 19.9609 4.32812C19.2578 4.64062 18.4375 4.875 17.6172 4.95312C18.4766 4.44531 19.1016 3.66406 19.4141 2.6875C18.6328 3.15625 17.7344 3.50781 16.8359 3.70312C16.0547 2.88281 15 2.41406 13.8281 2.41406C11.5625 2.41406 9.72656 4.25 9.72656 6.51562C9.72656 6.82812 9.76562 7.14062 9.84375 7.45312C6.44531 7.25781 3.39844 5.61719 1.36719 3.15625C1.01562 3.74219 0.820312 4.44531 0.820312 5.22656C0.820312 6.63281 1.52344 7.88281 2.65625 8.625C1.99219 8.58594 1.32812 8.42969 0.78125 8.11719V8.15625C0.78125 10.1484 2.1875 11.7891 4.0625 12.1797C3.75 12.2578 3.35938 12.3359 3.00781 12.3359C2.73438 12.3359 2.5 12.2969 2.22656 12.2578C2.73438 13.8984 4.25781 15.0703 6.05469 15.1094C4.64844 16.2031 2.89062 16.8672 0.976562 16.8672C0.625 16.8672 0.3125 16.8281 0 16.7891C1.79688 17.9609 3.94531 18.625 6.28906 18.625C13.8281 18.625 17.9297 12.4141 17.9297 6.98438C17.9297 6.78906 17.9297 6.63281 17.9297 6.4375Z" fill="#2D3748"/>
</g>
<defs>
<clipPath id="clip0_20_462">
<rect width="20" height="20" fill="white"/>
</clipPath>
</defs>
</svg>
